<svg width="25" height="25" viewBox="0 0 25 25" fill="none" xmlns="http://www.w3.org/2000/svg">
<path d="M19.5 10.9089V20.4089C19.5 20.6742 19.3946 20.9285 19.2071 21.116C19.0196 21.3036 18.7652 21.4089 18.5 21.4089H4.5C4.23478 21.4089 3.98043 21.3036 3.79289 21.116C3.60536 20.9285 3.5 20.6742 3.5 20.4089V6.40894C3.5 6.14372 3.60536 5.88937 3.79289 5.70183C3.98043 5.51429 4.23478 5.40894 4.5 5.40894H13.682" stroke="white" stroke-width="2" stroke-miterlimit="10" stroke-linecap="round" stroke-linejoin="round"/>
<path d="M6.5 15.9239L9.5 11.9089L11 13.4089L12.75 10.6589L16.5 15.9239H6.5Z" fill="white" stroke="white" stroke-width="2" stroke-miterlimit="10" stroke-linecap="round" stroke-linejoin="round"/>
<path d="M17.5 5.4089H21.5M19.4975 3.3064V7.3064" stroke="white" stroke-width="2" stroke-miterlimit="10" stroke-linecap="round" stroke-linejoin="round"/>
</svg>
