<svg width="16" height="10" viewBox="0 0 16 10" fill="none" xmlns="http://www.w3.org/2000/svg">
<path fill-rule="evenodd" clip-rule="evenodd" d="M9.06001 9.06C8.77876 9.3409 8.39751 9.49868 8.00001 9.49868C7.60251 9.49868 7.22126 9.3409 6.94001 9.06L1.28201 3.404C1.00075 3.1226 0.842787 2.741 0.84288 2.34314C0.842974 1.94528 1.00111 1.56376 1.28251 1.2825C1.5639 1.00123 1.9455 0.843275 2.34336 0.843369C2.74122 0.843462 3.12274 1.0016 3.40401 1.283L8.00001 5.879L12.596 1.283C12.8788 1.00962 13.2576 0.85825 13.6509 0.861481C14.0442 0.864712 14.4205 1.02229 14.6988 1.30027C14.977 1.57825 15.1349 1.9544 15.1385 2.34769C15.1421 2.74099 14.9911 3.11996 14.718 3.403L9.06101 9.061L9.06001 9.06Z" fill="white"/>
</svg>
