<svg width="24" height="24" viewBox="0 0 24 24" fill="none" xmlns="http://www.w3.org/2000/svg">
<path d="M12.0013 15.5C11.073 15.5 10.1828 15.1313 9.52643 14.4749C8.87005 13.8185 8.5013 12.9283 8.5013 12C8.5013 11.0717 8.87005 10.1815 9.52643 9.52513C10.1828 8.86875 11.073 8.5 12.0013 8.5C12.9296 8.5 13.8198 8.86875 14.4762 9.52513C15.1326 10.1815 15.5013 11.0717 15.5013 12C15.5013 12.9283 15.1326 13.8185 14.4762 14.4749C13.8198 15.1313 12.9296 15.5 12.0013 15.5ZM19.4313 12.97C19.4713 12.65 19.5013 12.33 19.5013 12C19.5013 11.67 19.4713 11.34 19.4313 11L21.5413 9.37C21.7313 9.22 21.7813 8.95 21.6613 8.73L19.6613 5.27C19.5413 5.05 19.2713 4.96 19.0513 5.05L16.5613 6.05C16.0413 5.66 15.5013 5.32 14.8713 5.07L14.5013 2.42C14.481 2.30222 14.4196 2.19543 14.3281 2.11855C14.2366 2.04168 14.1208 1.99968 14.0013 2H10.0013C9.7513 2 9.5413 2.18 9.5013 2.42L9.1313 5.07C8.5013 5.32 7.9613 5.66 7.4413 6.05L4.9513 5.05C4.7313 4.96 4.4613 5.05 4.3413 5.27L2.3413 8.73C2.2113 8.95 2.2713 9.22 2.4613 9.37L4.5713 11C4.5313 11.34 4.5013 11.67 4.5013 12C4.5013 12.33 4.5313 12.65 4.5713 12.97L2.4613 14.63C2.2713 14.78 2.2113 15.05 2.3413 15.27L4.3413 18.73C4.4613 18.95 4.7313 19.03 4.9513 18.95L7.4413 17.94C7.9613 18.34 8.5013 18.68 9.1313 18.93L9.5013 21.58C9.5413 21.82 9.7513 22 10.0013 22H14.0013C14.2513 22 14.4613 21.82 14.5013 21.58L14.8713 18.93C15.5013 18.67 16.0413 18.34 16.5613 17.94L19.0513 18.95C19.2713 19.03 19.5413 18.95 19.6613 18.73L21.6613 15.27C21.7813 15.05 21.7313 14.78 21.5413 14.63L19.4313 12.97Z" fill="white"/>
</svg>
