<svg width="25" height="24" viewBox="0 0 25 24" fill="none" xmlns="http://www.w3.org/2000/svg">
<g clip-path="url(#clip0_445_743)">
<path fill-rule="evenodd" clip-rule="evenodd" d="M13.5599 16.06C13.2787 16.3409 12.8974 16.4987 12.4999 16.4987C12.1024 16.4987 11.7212 16.3409 11.4399 16.06L5.7819 10.404C5.50064 10.1226 5.34268 9.741 5.34277 9.34314C5.34287 8.94528 5.50101 8.56376 5.7824 8.2825C6.06379 8.00123 6.4454 7.84327 6.84325 7.84337C7.24111 7.84346 7.62264 8.0016 7.9039 8.283L12.4999 12.879L17.0959 8.283C17.3787 8.00962 17.7575 7.85825 18.1508 7.86148C18.5441 7.86471 18.9204 8.02229 19.1986 8.30027C19.4769 8.57825 19.6348 8.9544 19.6384 9.34769C19.642 9.74099 19.491 10.12 19.2179 10.403L13.5609 16.061L13.5599 16.06Z" fill="white"/>
</g>
<defs>
<clipPath id="clip0_445_743">
<rect width="24" height="24" fill="white" transform="translate(0.5)"/>
</clipPath>
</defs>
</svg>
