<svg width="18" height="4" viewBox="0 0 18 4" fill="none" xmlns="http://www.w3.org/2000/svg">
<path fill-rule="evenodd" clip-rule="evenodd" d="M4.00623 2C4.00623 2.53043 3.79551 3.03914 3.42044 3.41421C3.04537 3.78929 2.53666 4 2.00623 4C1.47579 4 0.967085 3.78929 0.592012 3.41421C0.216939 3.03914 0.00622559 2.53043 0.00622559 2C0.00622559 1.46957 0.216939 0.96086 0.592012 0.585787C0.967085 0.210714 1.47579 0 2.00623 0C2.53666 0 3.04537 0.210714 3.42044 0.585787C3.79551 0.96086 4.00623 1.46957 4.00623 2ZM9.00623 0C9.53666 0 10.0454 0.210714 10.4204 0.585787C10.7955 0.96086 11.0062 1.46957 11.0062 2C11.0062 2.53043 10.7955 3.03914 10.4204 3.41421C10.0454 3.78929 9.53666 4 9.00623 4C8.47579 4 7.96709 3.78929 7.59201 3.41421C7.21694 3.03914 7.00623 2.53043 7.00623 2C7.00623 1.46957 7.21694 0.96086 7.59201 0.585787C7.96709 0.210714 8.47579 0 9.00623 0ZM16.0062 0C16.5367 0 17.0454 0.210714 17.4204 0.585787C17.7955 0.96086 18.0062 1.46957 18.0062 2C18.0062 2.53043 17.7955 3.03914 17.4204 3.41421C17.0454 3.78929 16.5367 4 16.0062 4C15.4758 4 14.9671 3.78929 14.592 3.41421C14.2169 3.03914 14.0062 2.53043 14.0062 2C14.0062 1.46957 14.2169 0.96086 14.592 0.585787C14.9671 0.210714 15.4758 0 16.0062 0Z" fill="white"/>
</svg>
